<svg width="126" height="125" viewBox="0 0 126 125" fill="none" xmlns="http://www.w3.org/2000/svg">
<rect x="1.5" y="1.83105" width="121" height="121" rx="6.5" stroke="black" stroke-width="3"/>
<path d="M73.9 27.9437C74.4929 26.2406 74.7103 24.4294 74.5375 22.6344C74.3646 20.8394 73.8055 19.103 72.8986 17.5445C71.9917 15.9859 70.7583 14.642 69.2832 13.605C67.8081 12.568 66.1262 11.8624 64.3528 11.5367C62.5794 11.211 60.7566 11.2728 59.0093 11.718C57.2621 12.1631 55.6318 12.9811 54.2304 14.1157C52.8289 15.2503 51.6895 16.6747 50.8902 18.2911C50.091 19.9076 49.6508 21.6779 49.6 23.4805C49.601 24.9713 49.872 26.4495 50.4 27.8436C43.6252 30.1144 37.7285 34.4445 33.5333 40.2294C29.3382 46.0143 27.0541 52.965 27 60.1111C27.1798 64.2459 27.8043 68.3493 28.8625 72.3504C28.9943 72.6926 29.1956 73.0038 29.4538 73.2642C29.712 73.5246 30.0214 73.7285 30.3625 73.8632C32.3379 74.7046 34.4654 75.1302 36.6125 75.1133C36.9625 75.1133 37.3 75.1133 37.625 75.1133C39.4 84.3773 43.7875 94.8538 50.125 107.731L50.225 107.893L50.775 108.718C50.9015 108.904 51.0709 109.057 51.2689 109.164C51.4669 109.27 51.6876 109.328 51.9125 109.331H58.375C58.9593 109.328 59.5201 109.101 59.9413 108.696C60.3626 108.291 60.6118 107.74 60.6375 107.156L61.625 83.4021L62.6125 107.156C62.6383 107.742 62.8893 108.295 63.3132 108.7C63.7371 109.106 64.3011 109.332 64.8875 109.331H72.7875C72.9802 109.331 73.1709 109.291 73.3474 109.214C73.5239 109.136 73.6823 109.023 73.8125 108.881L74.575 108.043C74.6641 107.941 74.7397 107.827 74.8 107.706C80.125 96.6916 84.8 85.5524 86.7625 75.2009H87.3C88.4886 75.1926 89.6735 75.0669 90.8375 74.8258C94.5875 74.0632 94.975 72.813 95.1 72.4004C96.1745 68.3845 96.8115 64.264 97 60.1111C96.9449 53.0192 94.6943 46.1186 90.5577 40.3583C86.4211 34.598 80.6018 30.261 73.9 27.9437ZM62.1625 13.6665C63.4527 13.6648 64.7307 13.9174 65.9233 14.4097C67.116 14.902 68.2 15.6244 69.1135 16.5358C70.027 17.4471 70.7521 18.5294 71.2473 19.721C71.7426 20.9126 71.9984 22.19 72 23.4805C72.0001 24.9866 71.6491 26.4719 70.975 27.8186C70.8415 27.9723 70.7396 28.1507 70.675 28.3437C69.8127 29.835 68.5731 31.073 67.0808 31.9332C65.5885 32.7935 63.8961 33.2457 62.1736 33.2445C60.4512 33.2432 58.7594 32.7885 57.2684 31.9261C55.7773 31.0637 54.5395 29.8239 53.6794 28.3314C52.8192 26.8389 52.367 25.1462 52.3682 23.4235C52.3695 21.7008 52.824 20.0088 53.6863 18.5175C54.5486 17.0262 55.7881 15.7882 57.2804 14.9279C58.7727 14.0676 60.4651 13.6153 62.1875 13.6165L62.1625 13.6665ZM72.4125 106.368L72.1875 106.618H65.3375L64.275 80.7392H63.825C64.1897 80.7392 64.5394 80.5943 64.7973 80.3364C65.0551 80.0785 65.2 79.7287 65.2 79.364C65.2 78.9993 65.0551 78.6495 64.7973 78.3916C64.5394 78.1337 64.1897 77.9888 63.825 77.9888H60.4125C60.069 77.9847 59.7368 78.1117 59.4837 78.344C59.2305 78.5762 59.0754 78.8963 59.05 79.239L57.9125 106.556H52.7L52.6 106.368C44.625 90.1156 40.4125 78.6014 39.675 69.0749C45.2875 72.4379 53.9125 74.0757 62.5125 74.0757C70.9 74.0757 79.25 72.4504 84.7875 69.1874C83.8875 79.0014 79.7875 91.0158 72.4125 106.368ZM92.5125 71.3628C90.8331 72.0744 89.0237 72.4278 87.2 72.4004C88.675 61.8988 87.075 52.2349 80.15 44.3087C79.914 44.043 79.5844 43.879 79.2302 43.851C78.876 43.823 78.5247 43.9333 78.25 44.1586C77.9762 44.4015 77.8094 44.7428 77.786 45.108C77.7626 45.4733 77.8844 45.8331 78.125 46.1089C82.8916 51.5677 85.36 58.6603 85.0125 65.8994C85.0125 65.8994 84.9375 65.8994 84.9125 65.8994C74.3375 73.7631 48.4875 72.4004 39.6 65.6619C39.6875 58.3858 42 52.2474 46.425 45.9339C46.5395 45.7868 46.6229 45.6179 46.6701 45.4375C46.7173 45.2571 46.7273 45.069 46.6996 44.8846C46.6719 44.7002 46.6069 44.5234 46.5087 44.3649C46.4105 44.2064 46.2811 44.0696 46.1284 43.9626C45.9757 43.8557 45.8028 43.781 45.6203 43.7429C45.4378 43.7049 45.2495 43.7044 45.0668 43.7415C44.884 43.7785 44.7108 43.8523 44.5575 43.9584C44.4042 44.0645 44.274 44.2007 44.175 44.3587C37.7875 53.46 35.75 62.2364 37.2125 72.3879C35.252 72.4716 33.2972 72.1215 31.4875 71.3628C30.5328 67.6812 29.9631 63.9104 29.7875 60.1111C29.8387 53.479 31.9771 47.0316 35.8993 41.6839C39.8214 36.3361 45.328 32.3597 51.6375 30.319C52.7634 32.0784 54.3121 33.5275 56.1421 34.5342C57.9721 35.5408 60.0252 36.0727 62.1137 36.0814C64.2022 36.0901 66.2596 35.5753 68.0979 34.584C69.9363 33.5927 71.497 32.1564 72.6375 30.4065C78.8806 32.4911 84.3163 36.4749 88.1846 41.8008C92.0529 47.1267 94.1604 53.5285 94.2125 60.1111C94.0369 63.9104 93.4672 67.6812 92.5125 71.3628Z" fill="black"/>
</svg>
